<?xml version="1.0" encoding="utf-8"?>
<!-- Generator: Adobe Illustrator 22.0.1, SVG Export Plug-In . SVG Version: 6.00 Build 0)  -->
<svg version="1.1" xmlns="http://www.w3.org/2000/svg" xmlns:xlink="http://www.w3.org/1999/xlink" x="0px" y="0px"
	 viewBox="0 0 334 55" enable-background="new 0 0 334 55" xml:space="preserve">
<g id="圖層_2">
</g>
<g id="圖層_1">
	<rect fill="none" width="206.557" height="55"/>
</g>
<g id="圖層_3">
	<g>
		<g>
			<path fill="#008BD5" d="M15.042,16.801h8.62l3.084,16.433h0.07l2.978-16.433h8.515v25.017h-5.467V22.336h-0.07l-3.819,19.482
				h-4.556l-4.029-19.482h-0.071v19.482h-5.256V16.801z"/>
			<path fill="#008BD5" d="M41.26,35.512h5.467v6.306H41.26V35.512z"/>
			<path fill="#008BD5" d="M49.393,16.519h5.676v4.345h-5.676V16.519z M49.393,22.861h5.676v18.957h-5.676V22.861z"/>
			<path fill="#008BD5" d="M57.734,16.801h14.472v4.765h-8.585v5.01h8.059v4.765h-8.059v10.478h-5.887V16.801z"/>
			<path fill="#008BD5" d="M73.368,28.678c0.035-2.594,0.806-4.17,2.138-5.08c1.331-0.913,2.943-1.228,5.291-1.228
				c4.66,0,6.728,1.614,6.728,5.607v9.741c0,1.436,0,3.259,0.666,4.1h-5.467c-0.211-0.665-0.281-1.436-0.316-2.173h-0.07
				c-0.771,1.681-2.558,2.664-4.45,2.664c-3.189,0-5.045-1.683-5.045-5.783c0-2.207,0.911-4.064,2.312-4.835
				c1.401-0.771,3.504-1.122,5.08-1.542c1.717-0.455,2.033-0.737,2.033-2.173c0-1.156-0.526-1.893-1.787-1.893
				c-1.577,0-2.032,0.947-2.068,2.594H73.368z M79.955,38.383c1.191,0,2.277-0.701,2.277-2.592c0-1.578,0.035-2.558,0.035-3.329
				c-1.787,0.947-2.558,0.98-3.084,1.402c-0.595,0.455-0.876,1.05-0.876,2.103C78.308,37.473,78.904,38.383,79.955,38.383z"/>
			<path fill="#008BD5" d="M99.442,30.01c0-2.77-0.631-3.926-2.138-3.926c-1.892,0-2.137,2.384-2.137,6.272
				c0,4.275,0.245,6.238,2.137,6.238c1.682,0,2.068-1.156,2.138-4.485h5.256c-0.035,5.851-2.347,8.199-7.498,8.199
				c-7.148,0-7.708-5.012-7.708-10.654c0-5.326,1.542-9.286,7.708-9.286c5.957,0,7.498,3.119,7.498,7.64H99.442z"/>
			<path fill="#008BD5" d="M106.84,26.785h-2.347v-3.924h2.347V17.29h5.676v5.571h2.628v3.924h-2.628v9.567
				c0,1.33,0.491,1.751,1.822,1.751c0.246,0,0.561-0.036,0.806-0.07v3.784c-1.085,0.14-2.172,0.21-3.258,0.21
				c-3.925,0-5.046-0.701-5.046-5.116V26.785z"/>
			<path fill="#008BD5" d="M115.639,32.393c0-5.677,1.261-10.023,7.813-10.023c6.938,0,7.814,4.242,7.814,9.917
				c0,5.677-1.261,10.023-7.814,10.023C116.515,42.309,115.639,38.068,115.639,32.393z M123.488,26.084
				c-1.682,0-2.173,1.647-2.173,6.238c0,4.625,0.49,6.272,2.173,6.272c1.751,0,2.102-1.578,2.102-6.238
				C125.59,27.662,125.239,26.084,123.488,26.084z"/>
			<path fill="#008BD5" d="M132.918,22.861h5.467v2.664h0.07c0.736-1.683,2.173-3.155,4.555-3.155c0.281,0,0.561,0,0.912,0.072
				v5.326c-0.561-0.106-1.016-0.14-1.578-0.14c-2.277,0-3.749,0.944-3.749,3.433v10.757h-5.676V22.861z"/>
			<path fill="#008BD5" d="M143.784,22.861h5.887l2.312,13.28h0.07l2.208-13.28h5.676l-5.08,19.097
				c-1.297,4.87-2.628,6.027-7.043,6.027c-0.912,0-1.717,0-2.453-0.07v-3.994c0.455,0.07,0.947,0.14,1.402,0.14
				c1.086,0,2.067-0.455,2.382-2.103L143.784,22.861z"/>
			<path fill="#008BD5" d="M166.32,16.309h4.766l-7.99,26h-4.766L166.32,16.309z"/>
			<path fill="#ABB4C4" d="M172.001,16.801h8.62l3.084,16.433h0.07l2.978-16.433h8.515v25.017h-5.467V22.336h-0.07l-3.819,19.482
				h-4.556l-4.029-19.482h-0.071v19.482h-5.256V16.801z"/>
			<path fill="#ABB4C4" d="M203.019,33.269v1.156c0,2.943,0.42,4.379,2.067,4.379c1.472,0,1.927-1.086,2.068-3.469h5.256
				c-0.105,4.695-2.663,6.973-7.359,6.973c-7.148,0-7.708-5.012-7.708-10.654c0-5.326,1.542-9.286,7.708-9.286
				c7.043,0,7.533,4.451,7.533,10.899H203.019z M207.119,29.974c0-2.662-0.35-4.1-1.927-4.1c-1.857,0-2.173,1.542-2.173,4.1H207.119
				z"/>
			<path fill="#ABB4C4" d="M214.692,26.785h-2.347v-3.924h2.347V17.29h5.676v5.571h2.628v3.924h-2.628v9.567
				c0,1.33,0.491,1.751,1.822,1.751c0.246,0,0.561-0.036,0.806-0.07v3.784c-1.085,0.14-2.172,0.21-3.258,0.21
				c-3.925,0-5.046-0.701-5.046-5.116V26.785z"/>
			<path fill="#ABB4C4" d="M224.016,28.678c0.035-2.594,0.806-4.17,2.138-5.08c1.331-0.913,2.943-1.228,5.291-1.228
				c4.66,0,6.728,1.614,6.728,5.607v9.741c0,1.436,0,3.259,0.666,4.1h-5.467c-0.211-0.665-0.281-1.436-0.316-2.173h-0.07
				c-0.771,1.681-2.558,2.664-4.45,2.664c-3.189,0-5.045-1.683-5.045-5.783c0-2.207,0.911-4.064,2.312-4.835
				c1.401-0.771,3.504-1.122,5.08-1.542c1.717-0.455,2.033-0.737,2.033-2.173c0-1.156-0.526-1.893-1.787-1.893
				c-1.577,0-2.032,0.947-2.068,2.594H224.016z M230.604,38.383c1.191,0,2.277-0.701,2.277-2.592c0-1.578,0.035-2.558,0.035-3.329
				c-1.787,0.947-2.558,0.98-3.084,1.402c-0.595,0.455-0.876,1.05-0.876,2.103C228.957,37.473,229.553,38.383,230.604,38.383z"/>
			<path fill="#ABB4C4" d="M240.911,16.801h5.676v25.017h-5.676V16.801z"/>
			<path fill="#ABB4C4" d="M247.746,22.861h5.676l1.822,13.98h0.07l2.138-13.98h6.097l1.997,13.98h0.071l1.997-13.98h5.467
				l-4.1,18.957h-6.412l-2.068-13.98h-0.07l-2.208,13.98h-6.518L247.746,22.861z"/>
			<path fill="#ABB4C4" d="M273.264,32.393c0-5.677,1.261-10.023,7.813-10.023c6.938,0,7.814,4.242,7.814,9.917
				c0,5.677-1.261,10.023-7.814,10.023C274.139,42.309,273.264,38.068,273.264,32.393z M281.112,26.084
				c-1.682,0-2.173,1.647-2.173,6.238c0,4.625,0.49,6.272,2.173,6.272c1.751,0,2.102-1.578,2.102-6.238
				C283.214,27.662,282.864,26.084,281.112,26.084z"/>
			<path fill="#ABB4C4" d="M290.542,22.861h5.467v2.664h0.07c0.736-1.683,2.173-3.155,4.555-3.155c0.281,0,0.561,0,0.912,0.072
				v5.326c-0.561-0.106-1.016-0.14-1.578-0.14c-2.277,0-3.749,0.944-3.749,3.433v10.757h-5.676V22.861z"/>
			<path fill="#ABB4C4" d="M302.637,16.801h5.676v12.858h0.071l4.239-6.798h6.237l-5.432,7.638l6.097,11.319h-6.201l-3.54-7.149
				l-1.472,1.999v5.15h-5.676V16.801z"/>
		</g>
	</g>
</g>
</svg>
