<?xml version="1.0" encoding="utf-8"?>
<!-- Generator: Adobe Illustrator 22.0.1, SVG Export Plug-In . SVG Version: 6.00 Build 0)  -->
<svg version="1.1" xmlns="http://www.w3.org/2000/svg" xmlns:xlink="http://www.w3.org/1999/xlink" x="0px" y="0px"
	 viewBox="0 0 220 55" enable-background="new 0 0 220 55" xml:space="preserve">
<g id="圖層_2">
</g>
<g id="圖層_1">
	<rect fill="none" width="206.557" height="55"/>
	<g>
		<g>
			<path fill="#008BD5" d="M15.042,16.519h5.676v4.345h-5.676V16.519z M15.042,22.861h5.676v18.957h-5.676V22.861z"/>
			<path fill="#008BD5" d="M23.384,16.801h14.472v4.765h-8.585v5.01h8.059v4.765h-8.059v10.478h-5.887V16.801z"/>
			<path fill="#008BD5" d="M39.017,28.679c0.035-2.594,0.806-4.17,2.138-5.08c1.331-0.913,2.944-1.228,5.291-1.228
				c4.66,0,6.728,1.614,6.728,5.608v9.741c0,1.436,0,3.259,0.666,4.1h-5.467c-0.211-0.665-0.281-1.436-0.316-2.173h-0.07
				c-0.771,1.681-2.558,2.664-4.45,2.664c-3.188,0-5.045-1.684-5.045-5.783c0-2.207,0.911-4.064,2.312-4.835
				c1.401-0.771,3.504-1.122,5.08-1.542c1.717-0.455,2.033-0.737,2.033-2.173c0-1.156-0.526-1.893-1.787-1.893
				c-1.577,0-2.032,0.947-2.068,2.594H39.017z M45.605,38.384c1.191,0,2.278-0.701,2.278-2.592c0-1.578,0.035-2.558,0.035-3.329
				c-1.787,0.947-2.558,0.98-3.083,1.402c-0.596,0.455-0.877,1.05-0.877,2.103C43.958,37.473,44.554,38.384,45.605,38.384z"/>
			<path fill="#008BD5" d="M65.092,30.011c0-2.768-0.631-3.926-2.138-3.926c-1.892,0-2.137,2.384-2.137,6.273
				c0,4.276,0.245,6.239,2.137,6.239c1.682,0,2.068-1.156,2.138-4.485h5.256c-0.035,5.851-2.347,8.2-7.499,8.2
				c-7.148,0-7.708-5.013-7.708-10.654c0-5.326,1.542-9.286,7.708-9.286c5.957,0,7.499,3.119,7.499,7.641H65.092z"/>
			<path fill="#008BD5" d="M72.491,26.785h-2.347v-3.924h2.347V17.29h5.676v5.572h2.628v3.924h-2.628v9.568
				c0,1.33,0.491,1.751,1.822,1.751c0.246,0,0.561-0.036,0.806-0.07v3.784c-1.085,0.14-2.172,0.21-3.258,0.21
				c-3.925,0-5.046-0.701-5.046-5.116V26.785z"/>
			<path fill="#008BD5" d="M81.29,32.393c0-5.677,1.261-10.023,7.813-10.023c6.939,0,7.814,4.242,7.814,9.917
				c0,5.677-1.261,10.023-7.814,10.023C82.166,42.31,81.29,38.068,81.29,32.393z M89.139,26.085c-1.682,0-2.173,1.648-2.173,6.239
				c0,4.625,0.49,6.273,2.173,6.273c1.751,0,2.102-1.578,2.102-6.239C91.241,27.662,90.891,26.085,89.139,26.085z"/>
			<path fill="#008BD5" d="M98.569,22.861h5.467v2.664h0.07c0.736-1.684,2.173-3.155,4.555-3.155c0.281,0,0.561,0,0.912,0.072v5.326
				c-0.561-0.106-1.016-0.14-1.578-0.14c-2.278,0-3.749,0.944-3.749,3.433v10.758h-5.676V22.861z"/>
			<path fill="#008BD5" d="M109.437,22.861h5.887l2.312,13.28h0.07l2.208-13.28h5.676l-5.08,19.097
				c-1.297,4.871-2.628,6.027-7.043,6.027c-0.912,0-1.717,0-2.453-0.07v-3.994c0.455,0.07,0.947,0.14,1.402,0.14
				c1.086,0,2.067-0.455,2.382-2.103L109.437,22.861z"/>
			<path fill="#008BD5" d="M131.972,16.309h4.766l-7.99,26.001h-4.766L131.972,16.309z"/>
			<path fill="#ABB4C4" d="M137.653,16.801h8.62l3.084,16.433h0.07l2.978-16.433h8.515v25.018h-5.467V22.336h-0.07l-3.819,19.483
				h-4.556l-4.029-19.483h-0.071v19.483h-5.256V16.801z"/>
			<path fill="#ABB4C4" d="M163.872,16.801h9.11c6.203,0,7.394,4.485,7.394,7.602c0,4.485-2.138,7.638-8.024,7.638h-2.593v9.777
				h-5.887V16.801z M169.759,27.698h1.612c2.347,0,2.909-1.472,2.909-3.155c0-1.927-0.631-3.399-3.013-3.399h-1.507V27.698z"/>
			<path fill="#ABB4C4" d="M182.66,16.801h8.62l3.084,16.433h0.07l2.979-16.433h8.515v25.018h-5.467V22.336h-0.07l-3.819,19.483
				h-4.556l-4.029-19.483h-0.071v19.483h-5.256V16.801z"/>
		</g>
	</g>
</g>
<g id="圖層_3">
</g>
</svg>
